<svg xmlns="http://www.w3.org/2000/svg" viewBox="0 0 1200 30" width="100%" height="100%">
  <path d="M0 22 L60 22 C68 17 82 17 90 22 L110 22 L118 26 L126 4 L134 27 L142 22 L180 22 C195 22 215 12 235 12 C255 12 270 22 280 22 L400 22 L460 22 C468 17 482 17 490 22 L510 22 L518 26 L526 4 L534 27 L542 22 L580 22 C595 22 615 12 635 12 C655 12 670 22 680 22 L800 22 L860 22 C868 17 882 17 890 22 L910 22 L918 26 L926 4 L934 27 L942 22 L980 22 C995 22 1015 12 1035 12 C1055 12 1070 22 1080 22 L1200 22"
    stroke="rgba(59,130,246,0.2)" stroke-width="1.5" fill="none"/>
</svg>
